HIERARCHY
ROOT Hips
{
	OFFSET -3.958830 18.904000 13.208200
	CHANNELS 6 Xposition Yposition Zposition Zrotation Yrotation Xrotation 
	JOINT LHipJoint
	{
		OFFSET 0.000000 0.000000 0.000000
		CHANNELS 3 Zrotation Yrotation Xrotation
		JOINT LeftUpLeg
		{
			OFFSET 1.800000 -1.400000 0.085000
			CHANNELS 3 Zrotation Yrotation Xrotation
			JOINT LeftLeg
			{
				OFFSET 2.215000 -6.000000 0.000000
				CHANNELS 3 Zrotation Yrotation Xrotation
				JOINT LeftFoot
				{
					OFFSET 2.500000 -6.900000 0.000000
					CHANNELS 3 Zrotation Yrotation Xrotation
					JOINT LeftToeBase
					{
						OFFSET 0.200000 -0.500000 1.950000
						CHANNELS 3 Zrotation Yrotation Xrotation
						End Site
						{
							OFFSET 0.000000 0.000000 0.000000
						}
					}
				}
			}
		}
	}
	JOINT RHipJoint
	{
		OFFSET 0.000000 0.000000 0.000000
		CHANNELS 3 Zrotation Yrotation Xrotation
		JOINT RightUpLeg
		{
			OFFSET -1.800000 -1.400000 0.085000
			CHANNELS 3 Zrotation Yrotation Xrotation
			JOINT RightLeg
			{
				OFFSET -2.215000 -6.000000 0.000000
				CHANNELS 3 Zrotation Yrotation Xrotation
				JOINT RightFoot
				{
					OFFSET -2.500000 -6.900000 0.000000
					CHANNELS 3 Zrotation Yrotation Xrotation
					JOINT RightToeBase
					{
						OFFSET -0.200000 -0.500000 1.950000
						CHANNELS 3 Zrotation Yrotation Xrotation
						End Site
						{
							OFFSET 0.000000 0.000000 0.000000
						}
					}
				}
			}
		}
	}
	JOINT LowerBack
	{
		OFFSET 0.000000 0.000000 0.000000
		CHANNELS 3 Zrotation Yrotation Xrotation
		JOINT Spine
		{
			OFFSET -0.087000 1.940000 -0.288900
			CHANNELS 3 Zrotation Yrotation Xrotation
			JOINT Spine1
			{
				OFFSET 0.000000 1.950000 0.060000
				CHANNELS 3 Zrotation Yrotation Xrotation
				JOINT Neck
				{
					OFFSET 0.000000 0.000000 0.000000
					CHANNELS 3 Zrotation Yrotation Xrotation
					JOINT Neck1
					{
						OFFSET 0.000000 1.600000 0.340000
						CHANNELS 3 Zrotation Yrotation Xrotation
						JOINT Head
						{
							OFFSET 0.000000 1.667000 -0.240000
							CHANNELS 3 Zrotation Yrotation Xrotation
							End Site
							{
								OFFSET 0.000000 0.000000 0.000000
							}
						}
					}
				}
				JOINT LeftShoulder
				{
					OFFSET 0.000000 0.000000 0.000000
					CHANNELS 3 Zrotation Yrotation Xrotation
					JOINT LeftArm
					{
						OFFSET 2.700000 1.550000 -0.730000
						CHANNELS 3 Zrotation Yrotation Xrotation
						JOINT LeftForeArm
						{
							OFFSET 5.450000 0.000000 0.000000
							CHANNELS 3 Zrotation Yrotation Xrotation
							JOINT LeftHand
							{
								OFFSET 3.450000 0.000000 0.000000
								CHANNELS 3 Zrotation Yrotation Xrotation
								JOINT LeftHandIndex1
								{
									OFFSET 0.750000 0.000000 0.000000
									CHANNELS 3 Zrotation Yrotation Xrotation
									End Site
									{
										OFFSET 0.000000 0.000000 0.000000
									}
								}
							}
						}
					}
				}
				JOINT RightShoulder
				{
					OFFSET 0.000000 0.000000 0.000000
					CHANNELS 3 Zrotation Yrotation Xrotation
					JOINT RightArm
					{
						OFFSET -2.700000 1.550000 -0.730000
						CHANNELS 3 Zrotation Yrotation Xrotation
						JOINT RightForeArm
						{
							OFFSET -5.450000 0.000000 0.000000
							CHANNELS 3 Zrotation Yrotation Xrotation
							JOINT RightHand
							{
								OFFSET -3.450000 0.000000 0.000000
								CHANNELS 3 Zrotation Yrotation Xrotation
								JOINT RightHandIndex1
								{
									OFFSET -0.750000 0.000000 0.000000
									CHANNELS 3 Zrotation Yrotation Xrotation
									End Site
									{
										OFFSET 0.000000 0.000000 0.000000
									}
								}
							}
						}
					}
				}
			}
		}
	}
}
MOTION
Frames: 8
Frame Time: 0.016667
-0.743820 16.845870 -0.324040 0.145262 27.137954 7.675205 -15.678557 13.966603 3.547236 3.271287 -2.156587 -16.512432 -6.511455 4.270989 5.986519 -0.805581 3.671586 3.539028 -0.587440 -1.143860 -0.406830 17.521358 -10.515868 3.404386 3.562634 3.183675 -22.167060 -4.784028 -1.859396 5.455033 0.201792 -1.657709 4.083588 -0.612590 0.614500 0.185350 -2.370485 -3.159367 -8.496890 -0.627005 0.172911 25.342219 4.550052 8.366232 -24.662012 3.056289 2.082944 -13.550839 1.841022 -6.784798 41.843171 -11.272070 -1.358350 -3.515860 0.862776 11.292609 0.533907 -16.075203 21.908404 -3.453669 -27.062840 -23.853784 4.385653 -3.793066 2.620035 0.918190 0.204660 -0.175410 0.032970 -8.116377 -4.834579 10.743847 37.744038 -16.755656 -10.019700 -100.184618 41.273172 -40.724486 1.804237 -0.933904 -0.655310 0.430360 0.652730 -0.254120 
-0.767950 16.846090 -0.251470 0.053409 28.470073 6.346390 -15.715660 13.960840 3.330316 2.637168 -1.908299 -16.620906 -4.399861 4.446223 9.602294 -0.844717 3.610529 3.517998 -0.513360 -1.054340 -0.333410 17.479165 -10.756833 3.358465 2.555623 2.367094 -19.449576 -2.325572 -2.352486 4.241739 0.140204 -1.898394 3.971836 -0.560170 0.556940 0.221680 -2.260532 -2.653219 -8.203861 -2.910318 2.546441 22.917198 7.279102 9.269491 -21.350218 2.604079 4.230451 -13.874406 6.314390 -9.005810 41.937462 -12.419910 -1.875040 -2.658800 0.669894 9.193921 1.820329 -16.493648 24.230234 -3.729807 -31.958683 -30.443596 7.277932 -3.717634 2.843222 0.896230 0.213040 -0.141470 0.026490 -7.231372 -4.386751 10.134464 35.924026 -14.835334 -10.190338 -93.169073 38.634488 -33.685114 1.825789 -1.029282 -0.609100 0.386930 0.613070 -0.268360 
-0.793570 16.846230 -0.188020 -0.177133 30.637042 4.156549 -15.759713 13.995796 3.131067 2.549798 -1.501377 -16.062292 -2.916567 4.687549 12.672462 -0.874444 3.740406 3.447180 -0.464720 -0.985470 -0.273000 17.443612 -10.942000 3.245258 1.621327 1.723868 -16.645886 -0.692612 -2.841523 5.296832 0.081119 -2.193379 3.856101 -0.505400 0.522150 0.236010 -2.163634 -2.331952 -7.847023 -4.962083 4.389981 21.437172 9.550010 9.890914 -17.898772 2.321307 6.489800 -14.313127 11.168562 -11.612981 40.883142 -13.778050 -2.525130 -2.093730 -0.523006 6.647846 3.467298 -14.176947 28.260499 -2.933058 -42.247632 -40.490182 13.925570 -3.662620 3.101674 0.883680 0.234610 -0.118520 0.018740 -5.614159 -3.696536 9.476709 33.343618 -13.584217 -10.497755 -85.964302 36.643021 -28.342141 1.819901 -1.061170 -0.598060 0.384090 0.586270 -0.288410 
-0.800770 16.842950 -0.117260 -0.444449 32.561667 1.868581 -15.782558 14.001972 2.942667 2.595939 -1.167571 -15.869787 -1.646633 5.038662 16.443893 -0.827739 3.951548 3.333938 -0.406350 -0.913240 -0.226920 17.425700 -11.083917 3.198979 0.152147 0.939000 -12.823988 1.767794 -3.463625 4.785479 -0.021343 -2.596585 3.711413 -0.475740 0.475300 0.248880 -2.127380 -2.018289 -7.585907 -6.472160 5.937776 19.826653 11.357806 10.729895 -15.191324 1.757341 7.740214 -15.393505 14.516108 -13.421820 41.945607 -12.813260 -3.836290 -0.457880 -0.092735 4.247155 5.290582 -13.184051 30.412053 -2.046557 -53.766695 -47.140999 21.841063 -3.570868 3.303160 0.871120 0.224010 -0.085390 0.024790 -5.000539 -2.259672 9.424232 31.204557 -12.788164 -10.742912 -77.305825 34.008289 -22.405697 1.859174 -1.111239 -0.554210 0.353240 0.543370 -0.286560 
-0.796990 16.829530 -0.063410 -1.035597 35.893549 -0.760065 -15.845624 14.067657 2.776058 2.906552 -0.955463 -15.995573 -0.461620 5.450257 20.708387 -0.826284 4.401198 3.150522 -0.380740 -0.862620 -0.231600 17.393763 -11.053525 3.134268 -0.851872 0.413831 -9.398354 3.729226 -4.055312 5.213706 -0.089148 -3.013024 3.569295 -0.413730 0.495150 0.242720 -1.982780 -2.122428 -7.329070 -7.352017 7.185101 18.669637 13.809472 10.956502 -11.005126 1.675263 8.496150 -15.450219 16.131721 -15.534969 40.757616 -12.568550 -6.247890 -0.142410 -1.056615 2.354551 6.292922 -12.606751 30.828628 -1.214795 -67.056676 -52.652839 31.923751 -3.578850 3.406320 0.844830 0.253240 -0.104260 0.029690 -3.454215 -0.997238 8.846279 26.438118 -12.142965 -10.756544 -70.156208 30.021858 -17.441908 1.868415 -1.158017 -0.565200 0.391280 0.550880 -0.281580 
-0.775750 16.819420 -0.015440 -2.185629 40.787343 -3.699332 -15.910429 14.149164 2.660302 3.179708 -1.001064 -16.066959 1.077327 5.572934 24.732251 -0.834433 4.877843 2.952024 -0.325830 -0.795770 -0.192300 17.360174 -10.949053 3.090104 -1.680740 0.040711 -6.402544 5.998699 -4.728903 6.038733 -0.170971 -3.413980 3.415339 -0.340530 0.481700 0.233120 -1.801163 -2.402355 -7.142704 -7.277796 8.021081 17.693372 15.876314 10.886183 -6.794911 1.937088 9.167613 -15.454659 17.248923 -17.647739 39.432599 -12.791150 -8.368600 -1.075640 -2.252503 0.127033 6.992617 -11.687538 28.906229 -0.019424 -81.394157 -56.912278 44.076067 -3.624183 3.448408 0.844200 0.256490 -0.109270 0.025400 -2.209259 0.552214 8.577306 23.002743 -12.235785 -11.093973 -64.808828 24.369837 -12.999203 1.894660 -1.231583 -0.578470 0.423490 0.544520 -0.297620 
-0.753450 16.822430 0.014720 -3.748027 46.289344 -7.164168 -15.975643 14.340454 2.581893 3.453776 -1.051785 -15.497701 3.139556 5.282324 27.907287 -0.835356 5.249728 2.780486 -0.230120 -0.678950 -0.125240 17.308263 -10.801981 3.043160 -2.416171 -0.168198 -4.175633 8.271230 -5.485752 7.750453 -0.266696 -3.740900 3.273645 -0.253500 0.417390 0.212720 -1.497763 -2.942933 -7.008865 -6.663033 9.043767 17.470572 18.002462 11.216508 -3.160576 2.340209 9.491301 -15.520124 17.227166 -20.094223 39.159781 -12.640430 -11.181320 -3.725440 -3.853360 -2.752409 7.488201 -10.386785 24.950420 1.247129 -96.815162 -59.158332 57.815699 -3.675487 3.391507 0.872950 0.207830 -0.075460 0.023150 -0.762391 3.194000 8.753531 19.442802 -13.177784 -11.576105 -61.203065 14.093959 -7.137354 1.985821 -1.336551 -0.571080 0.454120 0.513050 -0.314830 
-0.734940 16.824890 0.038790 -5.431141 51.513163 -11.047276 -15.992069 14.421753 2.509718 3.643865 -1.229041 -14.811202 5.084843 4.843196 31.006721 -0.788780 5.608213 2.611252 -0.122290 -0.518580 -0.082090 17.303774 -10.709082 3.042372 -3.465191 -0.534824 -1.431962 10.505607 -6.286839 8.600723 -0.411117 -4.150931 3.113018 -0.162690 0.361130 0.214010 -1.286398 -3.242414 -6.940206 -5.548340 9.614263 17.218740 18.887199 10.825111 0.851152 2.796348 9.952214 -15.660445 17.845316 -22.226853 40.496574 -12.018790 -13.341720 -6.246550 -6.382926 -6.445683 8.007200 -6.989195 21.848765 2.191944 -113.160537 -59.576270 73.397185 -3.734669 3.284372 0.887540 0.164260 -0.011920 0.045990 1.438807 6.335900 8.964535 15.727333 -12.503818 -12.005843 -58.714579 2.511751 -1.557089 2.098259 -1.418574 -0.527950 0.482180 0.469380 -0.300000 
